<svg width="187" height="200" viewBox="0 0 187 200" fill="none" xmlns="http://www.w3.org/2000/svg">
<path d="M113.379 69.9515C113.379 71.792 114.869 73.286 116.713 73.286H150.06C151.904 73.286 153.395 71.792 153.395 69.9515C153.395 68.1109 151.904 66.6169 150.06 66.6169H116.713C114.869 66.6166 113.379 68.1105 113.379 69.9515Z" fill="#333333"/>
<path d="M133.387 89.9595C133.387 91.8001 134.877 93.294 136.722 93.294H156.73C158.574 93.294 160.064 91.8001 160.064 89.9595C160.064 88.1189 158.574 86.625 156.73 86.625H136.722C134.877 86.6246 133.387 88.1186 133.387 89.9595Z" fill="#333333"/>
<path d="M130.052 53.278C131.896 53.278 133.387 51.784 133.387 49.9434C133.387 48.1028 131.896 46.6089 130.052 46.6089H123.383C121.539 46.6089 120.048 48.1028 120.048 49.9434C120.048 51.784 121.539 53.278 123.383 53.278H130.052Z" fill="#333333"/>
<path d="M90.036 86.6245C88.1919 86.6245 86.7014 88.1185 86.7014 89.959C86.7014 91.7996 88.1919 93.2936 90.036 93.2936H123.383C125.227 93.2936 126.717 91.7996 126.717 89.959C126.717 88.1185 125.227 86.6245 123.383 86.6245H90.036Z" fill="#333333"/>
<path d="M106.71 179.995H43.3509C37.8354 179.995 33.3469 175.507 33.3469 169.992V16.5965C33.3469 14.7559 31.8564 13.262 30.0123 13.262C20.8188 13.262 13.3389 20.7415 13.3389 29.9354C13.3389 31.776 14.8293 33.27 16.6734 33.27C18.5175 33.27 20.0079 31.776 20.0079 29.9354C20.0079 25.5868 22.7958 21.8787 26.6774 20.5016V169.992C26.6774 179.185 34.157 186.665 43.3509 186.665H106.71C108.554 186.665 110.044 185.171 110.044 183.33C110.044 181.49 108.554 179.995 106.71 179.995Z" fill="#333333"/>
<path d="M56.6895 73.286H103.375C105.219 73.286 106.71 71.792 106.71 69.9515C106.71 68.1109 105.219 66.6169 103.375 66.6169H56.6895C54.8454 66.6169 53.355 68.1109 53.355 69.9515C53.355 71.792 54.8454 73.286 56.6895 73.286Z" fill="#333333"/>
<path d="M56.6895 53.278H70.0281C71.8722 53.278 73.3626 51.784 73.3626 49.9434C73.3626 48.1028 71.8722 46.6089 70.0281 46.6089H56.6895C54.8454 46.6089 53.355 48.1028 53.355 49.9434C53.355 51.784 54.8454 53.278 56.6895 53.278Z" fill="#333333"/>
<path d="M110.044 46.6085H83.3665C81.5224 46.6085 80.032 48.1025 80.032 49.9431C80.032 51.7836 81.5224 53.2776 83.3665 53.2776H110.044C111.888 53.2776 113.379 51.7836 113.379 49.9431C113.379 48.1025 111.888 46.6085 110.044 46.6085Z" fill="#333333"/>
<path d="M156.73 0H30.012C13.5019 0 0.0633066 13.4019 0 29.8952V29.935V29.9718V30.012V30.0519C0.0433768 40.6862 5.78239 50.5933 15.0025 55.929C16.5965 56.8493 18.634 56.3058 19.5574 54.7153C20.4844 53.1213 19.9342 51.0806 18.3437 50.1599C11.1545 45.995 6.68276 38.2653 6.66947 29.9722C6.69292 17.1201 17.1538 6.66947 30.012 6.66947H156.73C169.598 6.66947 180.072 17.1405 180.072 30.012V170.068C180.072 171.759 179.599 173.456 178.708 174.97C177.778 176.557 178.305 178.602 179.892 179.535C180.425 179.849 181.006 179.996 181.579 179.996C182.723 179.996 183.837 179.409 184.457 178.352C185.951 175.814 186.741 172.949 186.741 170.068V30.012C186.742 13.462 173.28 0 156.73 0Z" fill="#333333"/>
<path d="M166.733 153.318C166.733 142.283 157.76 133.31 146.725 133.31C135.691 133.31 126.718 142.283 126.718 153.318C126.718 164.352 135.691 173.326 146.725 173.326C157.76 173.326 166.733 164.352 166.733 153.318ZM146.725 166.656C139.369 166.656 133.387 160.674 133.387 153.318C133.387 145.962 139.369 139.979 146.725 139.979C154.082 139.979 160.064 145.962 160.064 153.318C160.064 160.674 154.082 166.656 146.725 166.656Z" fill="#333333"/>
<path d="M140.706 176.664C139.116 175.744 137.075 176.29 136.151 177.884L128.971 190.326L127.831 188.606C127.254 187.729 126.297 187.175 125.25 187.115L123.189 186.992L130.489 174.353C131.409 172.759 130.862 170.719 129.268 169.798C127.674 168.874 125.634 169.421 124.71 171.018L114.716 188.329C114.139 189.329 114.122 190.56 114.669 191.577C115.216 192.593 116.25 193.257 117.407 193.324L123.186 193.67L126.377 198.502C126.994 199.44 128.041 200 129.158 200H129.262C130.412 199.963 131.469 199.332 132.05 198.332L141.93 181.219C142.85 179.625 142.304 177.584 140.706 176.664Z" fill="#333333"/>
<path d="M168.828 171.175C167.904 169.578 165.86 169.031 164.272 169.955C162.675 170.875 162.128 172.916 163.049 174.51L170.262 186.991L168.201 187.115C167.154 187.178 166.197 187.732 165.616 188.605L164.483 190.326L157.34 177.947C156.413 176.353 154.372 175.807 152.782 176.727C151.188 177.647 150.641 179.688 151.561 181.282L161.405 198.332C161.985 199.333 163.042 199.963 164.193 200H164.296C165.41 200 166.46 199.44 167.081 198.503L170.269 193.674L176.044 193.324C177.201 193.257 178.235 192.594 178.782 191.577C179.329 190.56 179.309 189.33 178.736 188.329L168.828 171.175Z" fill="#333333"/>
<path d="M56.6895 93.294H76.6975C78.5416 93.294 80.0321 91.8001 80.0321 89.9595C80.0321 88.1189 78.5416 86.625 76.6975 86.625H56.6895C54.8454 86.625 53.355 88.1189 53.355 89.9595C53.355 91.8001 54.8454 93.294 56.6895 93.294Z" fill="#333333"/>
<path d="M56.6895 113.302H96.7055C98.5496 113.302 100.04 111.808 100.04 109.967C100.04 108.127 98.5496 106.633 96.7055 106.633H56.6895C54.8454 106.633 53.355 108.127 53.355 109.967C53.355 111.808 54.8454 113.302 56.6895 113.302Z" fill="#333333"/>
<path d="M57.0429 154.808C57.8631 156.456 59.8675 157.123 61.5146 156.302C63.1617 155.479 63.8323 153.475 63.005 151.827C59.7037 145.224 58.9636 139.302 61.0175 135.977C62.1113 134.207 64.0187 133.31 66.6932 133.31C68.2837 133.31 68.8773 133.856 69.2509 134.39C71.7351 137.972 69.3744 148.879 66.9035 155.482C66.3533 156.952 66.9035 158.606 68.2239 159.457C69.5377 160.3 71.2751 160.117 72.3857 159.01C73.8098 157.59 75.3537 156.172 76.6976 155.022V156.652C76.6976 158 77.5081 159.217 78.7551 159.73C80.0021 160.25 81.4327 159.964 82.3898 159.01C83.9138 157.49 85.6809 155.999 87.1682 154.925C87.1284 155.008 87.0881 155.089 87.0483 155.165C86.5379 156.199 86.5946 157.426 87.2018 158.406C87.8122 159.387 88.8826 159.987 90.0362 159.987H103.375C105.219 159.987 106.709 158.493 106.709 156.652C106.709 154.812 105.219 153.318 103.375 153.318H94.6947C94.9647 151.731 94.8983 150.117 94.0944 148.816C93.2441 147.439 91.7634 146.648 90.0362 146.648C87.9752 146.648 85.5512 147.902 83.337 149.456C83.167 148.002 82.3065 146.805 80.9994 146.265C80.1092 145.898 78.9618 145.418 76.1775 147.089C77.2744 141.343 77.5949 134.721 74.7336 130.592C73.4831 128.788 71.0755 126.641 66.6936 126.641C61.6983 126.641 57.6666 128.712 55.3426 132.473C52.0178 137.855 52.6345 145.995 57.0429 154.808Z" fill="#333333"/>
<path d="M146.726 109.967C146.726 108.127 145.235 106.633 143.391 106.633H110.044C108.2 106.633 106.71 108.127 106.71 109.967C106.71 111.808 108.2 113.302 110.044 113.302H143.391C145.235 113.302 146.726 111.808 146.726 109.967Z" fill="#333333"/>
</svg>
