<svg width="32" height="32" viewBox="0 0 32 32" fill="none" xmlns="http://www.w3.org/2000/svg">
<path d="M21.3333 16H24.8889C24.8889 13.6425 23.9524 11.3816 22.2854 9.71461C20.6184 8.04762 18.3575 7.11111 16 7.11111V10.6667C17.4145 10.6667 18.771 11.2286 19.7712 12.2288C20.7714 13.229 21.3333 14.5855 21.3333 16ZM28.4444 16H32C32 7.11111 24.8356 0 16 0V3.55556C22.8622 3.55556 28.4444 9.12 28.4444 16ZM30.2222 22.2222C28 22.2222 25.8667 21.8667 23.8756 21.2089C23.2533 21.0133 22.56 21.1556 22.0622 21.6533L18.1511 25.5644C13.12 23.0044 8.99556 18.88 6.43556 13.8489L10.3467 9.93778C10.8444 9.44 10.9867 8.74667 10.7911 8.12444C10.1333 6.13333 9.77778 4 9.77778 1.77778C9.77778 1.30628 9.59048 0.854097 9.25708 0.520699C8.92368 0.187301 8.4715 0 8 0H1.77778C1.30628 0 0.854097 0.187301 0.520699 0.520699C0.187301 0.854097 0 1.30628 0 1.77778C0 9.79321 3.18412 17.4803 8.85188 23.1481C14.5197 28.8159 22.2068 32 30.2222 32C30.6937 32 31.1459 31.8127 31.4793 31.4793C31.8127 31.1459 32 30.6937 32 30.2222V24C32 23.5285 31.8127 23.0763 31.4793 22.7429C31.1459 22.4095 30.6937 22.2222 30.2222 22.2222Z" fill="#FF8E01"/>
</svg>
