<svg width="30" height="40" viewBox="0 0 30 40" fill="none" xmlns="http://www.w3.org/2000/svg">
<path d="M13.4375 39.2188C12.0833 37.2396 10.3385 34.7396 8.20312 31.7188C5.59896 27.9688 3.88021 25.4427 3.04688 24.1406C1.84896 22.2656 1.04167 20.7031 0.625 19.4531C0.208333 18.151 0 16.6667 0 15C0 12.2917 0.677083 9.79167 2.03125 7.5C3.38542 5.20833 5.20833 3.38542 7.5 2.03125C9.79167 0.677083 12.2917 0 15 0C17.7083 0 20.2083 0.677083 22.5 2.03125C24.7917 3.38542 26.6146 5.20833 27.9688 7.5C29.3229 9.79167 30 12.2917 30 15C30 16.6667 29.7917 18.151 29.375 19.4531C28.9583 20.7031 28.151 22.2656 26.9531 24.1406C26.1198 25.4427 24.401 27.9688 21.7969 31.7188L16.5625 39.2188C16.1979 39.7396 15.6771 40 15 40C14.3229 40 13.8021 39.7396 13.4375 39.2188ZM15 21.25C16.7188 21.25 18.1771 20.651 19.375 19.4531C20.625 18.2031 21.25 16.7188 21.25 15C21.25 13.2812 20.625 11.8229 19.375 10.625C18.1771 9.375 16.7188 8.75 15 8.75C13.2812 8.75 11.7969 9.375 10.5469 10.625C9.34896 11.8229 8.75 13.2812 8.75 15C8.75 16.7188 9.34896 18.2031 10.5469 19.4531C11.7969 20.651 13.2812 21.25 15 21.25Z" fill="#FF8E01"/>
</svg>
